HIERARCHY
ROOT hip
{
  OFFSET 0.00112043 5.09927 -9.65472
  CHANNELS 6 Xposition Yposition Zposition Zrotation Xrotation Yrotation
  JOINT abdomen
  {
    OFFSET 0 -1.186 -1.5018
    CHANNELS 3 Zrotation Xrotation Yrotation
    JOINT abdomen2
    {
      OFFSET 0 9.964 0.2134
      CHANNELS 3 Zrotation Xrotation Yrotation
      JOINT chest
      {
        OFFSET 0 13.134 -3.2573
        CHANNELS 3 Zrotation Xrotation Yrotation
        JOINT neck
        {
          OFFSET 0 20.686 -1.6905
          CHANNELS 3 Zrotation Xrotation Yrotation
          JOINT head
          {
            OFFSET 0 7.238 -0.1237
            CHANNELS 3 Zrotation Xrotation Yrotation
            End Site
            {
              OFFSET 0 0 0
            }
          }
        }
        JOINT lCollar
        {
          OFFSET 1.7069 20.075 5.0056
          CHANNELS 3 Zrotation Xrotation Yrotation
          JOINT lShldr
          {
            OFFSET 13.6458 -0.047 -4.849
            CHANNELS 3 Zrotation Xrotation Yrotation
            JOINT lForeArm
            {
              OFFSET 28.3255 -0.9759 2.2888
              CHANNELS 3 Zrotation Xrotation Yrotation
              JOINT lHand
              {
                OFFSET 22.1583 -0.53 10.8316
                CHANNELS 3 Zrotation Xrotation Yrotation
                JOINT lThumb1
                {
                  OFFSET 0.786 0.112 2.5817
                  CHANNELS 3 Zrotation Xrotation Yrotation
                  JOINT lThumb2
                  {
                    OFFSET 0.3601 -0.878 4.2331
                    CHANNELS 3 Zrotation Xrotation Yrotation
                    JOINT lThumb2_End
                    {
                      OFFSET 1.8127 -1.216 2.2227
                      CHANNELS 3 Zrotation Xrotation Yrotation
                      End Site
                      {
                        OFFSET 0.0181 -0.0122 0.0222
                      }
                    }
                  }
                }
                JOINT lCarpal1
                {
                  OFFSET 0.9571 1.114 1.7695
                  CHANNELS 3 Zrotation Xrotation Yrotation
                  JOINT lIndex1
                  {
                    OFFSET 4.1246 0.487 4.1451
                    CHANNELS 3 Zrotation Xrotation Yrotation
                    JOINT lIndex2
                    {
                      OFFSET 3.4052 -1.454 2.7682
                      CHANNELS 3 Zrotation Xrotation Yrotation
                      JOINT lIndex2_End
                      {
                        OFFSET 1.4531 -1.795 1.2713
                        CHANNELS 3 Zrotation Xrotation Yrotation
                        End Site
                        {
                          OFFSET 0.0145 -0.0179 0.0127
                        }
                      }
                    }
                  }
                  JOINT lMid1
                  {
                    OFFSET 5.6954 0.21 2.1184
                    CHANNELS 3 Zrotation Xrotation Yrotation
                    JOINT lMid2
                    {
                      OFFSET 3.9766 -1.54 2.3863
                      CHANNELS 3 Zrotation Xrotation Yrotation
                      JOINT lMid2_End
                      {
                        OFFSET 1.4042 -1.926 1.125
                        CHANNELS 3 Zrotation Xrotation Yrotation
                        End Site
                        {
                          OFFSET 0.014 -0.0193 0.0113
                        }
                      }
                    }
                  }
                }
                JOINT lCarpal2
                {
                  OFFSET 2.0956 0.66 -0.3894
                  CHANNELS 3 Zrotation Xrotation Yrotation
                  JOINT lRing1
                  {
                    OFFSET 5.0395 -0.09 2.4971
                    CHANNELS 3 Zrotation Xrotation Yrotation
                    JOINT lRing2
                    {
                      OFFSET 3.7921 -1.552 1.4806
                      CHANNELS 3 Zrotation Xrotation Yrotation
                      JOINT lRing2_End
                      {
                        OFFSET 1.4655 -1.808 0.9609
                        CHANNELS 3 Zrotation Xrotation Yrotation
                        End Site
                        {
                          OFFSET 0.0147 -0.0181 0.0096
                        }
                      }
                    }
                  }
                  JOINT lPinky1
                  {
                    OFFSET 4.9141 -1.269 0.3591
                    CHANNELS 3 Zrotation Xrotation Yrotation
                    JOINT lPinky2
                    {
                      OFFSET 3.1477 -1.685 0.8462
                      CHANNELS 3 Zrotation Xrotation Yrotation
                      JOINT lPinky2_End
                      {
                        OFFSET 0.8055 -1.585 0.7955
                        CHANNELS 3 Zrotation Xrotation Yrotation
                        End Site
                        {
                          OFFSET 0.0081 -0.0158 0.008
                        }
                      }
                    }
                  }
                }
              }
            }
          }
        }
        JOINT rCollar
        {
          OFFSET -1.7069 20.075 5.0056
          CHANNELS 3 Zrotation Xrotation Yrotation
          JOINT rShldr
          {
            OFFSET -13.6458 -0.047 -4.849
            CHANNELS 3 Zrotation Xrotation Yrotation
            JOINT rForeArm
            {
              OFFSET -28.3255 -0.9759 2.2888
              CHANNELS 3 Zrotation Xrotation Yrotation
              JOINT rHand
              {
                OFFSET -22.1583 -0.53 10.8316
                CHANNELS 3 Zrotation Xrotation Yrotation
                JOINT rThumb1
                {
                  OFFSET -0.786 0.112 2.5817
                  CHANNELS 3 Zrotation Xrotation Yrotation
                  JOINT rThumb2
                  {
                    OFFSET -0.3601 -0.878 4.2331
                    CHANNELS 3 Zrotation Xrotation Yrotation
                    JOINT rThumb2_End
                    {
                      OFFSET -1.8127 -1.216 2.2227
                      CHANNELS 3 Zrotation Xrotation Yrotation
                      End Site
                      {
                        OFFSET -0.0181 -0.0122 0.0222
                      }
                    }
                  }
                }
                JOINT rCarpal1
                {
                  OFFSET -0.9571 1.114 1.7695
                  CHANNELS 3 Zrotation Xrotation Yrotation
                  JOINT rIndex1
                  {
                    OFFSET -4.1246 0.487 4.1451
                    CHANNELS 3 Zrotation Xrotation Yrotation
                    JOINT rIndex2
                    {
                      OFFSET -3.4052 -1.454 2.7682
                      CHANNELS 3 Zrotation Xrotation Yrotation
                      JOINT rIndex2_End
                      {
                        OFFSET -1.4531 -1.795 1.2713
                        CHANNELS 3 Zrotation Xrotation Yrotation
                        End Site
                        {
                          OFFSET -0.0145 -0.018 0.0127
                        }
                      }
                    }
                  }
                  JOINT rMid1
                  {
                    OFFSET -5.6954 0.21 2.1184
                    CHANNELS 3 Zrotation Xrotation Yrotation
                    JOINT rMid2
                    {
                      OFFSET -3.9766 -1.54 2.3863
                      CHANNELS 3 Zrotation Xrotation Yrotation
                      JOINT rMid2_End
                      {
                        OFFSET -1.4042 -1.926 1.125
                        CHANNELS 3 Zrotation Xrotation Yrotation
                        End Site
                        {
                          OFFSET -0.014 -0.0193 0.0113
                        }
                      }
                    }
                  }
                }
                JOINT rCarpal2
                {
                  OFFSET -2.0956 0.66 -0.3894
                  CHANNELS 3 Zrotation Xrotation Yrotation
                  JOINT rRing1
                  {
                    OFFSET -5.0395 -0.09 2.4971
                    CHANNELS 3 Zrotation Xrotation Yrotation
                    JOINT rRing2
                    {
                      OFFSET -3.7921 -1.552 1.4806
                      CHANNELS 3 Zrotation Xrotation Yrotation
                      JOINT rRing2_End
                      {
                        OFFSET -1.4655 -1.808 0.9609
                        CHANNELS 3 Zrotation Xrotation Yrotation
                        End Site
                        {
                          OFFSET -0.0147 -0.0181 0.0096
                        }
                      }
                    }
                  }
                  JOINT rPinky1
                  {
                    OFFSET -4.9141 -1.269 0.3592
                    CHANNELS 3 Zrotation Xrotation Yrotation
                    JOINT rPinky2
                    {
                      OFFSET -3.1477 -1.685 0.8462
                      CHANNELS 3 Zrotation Xrotation Yrotation
                      JOINT rPinky2_End
                      {
                        OFFSET -0.8055 -1.585 0.7955
                        CHANNELS 3 Zrotation Xrotation Yrotation
                        End Site
                        {
                          OFFSET -0.0081 -0.0158 0.008
                        }
                      }
                    }
                  }
                }
              }
            }
          }
        }
      }
    }
  }
  JOINT lThigh
  {
    OFFSET 8.367 -8.2066 0.5982
    CHANNELS 3 Zrotation Xrotation Yrotation
    JOINT lShin
    {
      OFFSET 2.1923 -43.463 -0.4932
      CHANNELS 3 Zrotation Xrotation Yrotation
      JOINT lFoot
      {
        OFFSET 0.7333 -45.8593 -2.6451
        CHANNELS 3 Zrotation Xrotation Yrotation
        End Site
        {
          OFFSET 2.6618 -4.2699 12.3931
        }
      }
    }
  }
  JOINT rThigh
  {
    OFFSET -8.367 -8.2066 0.5982
    CHANNELS 3 Zrotation Xrotation Yrotation
    JOINT rShin
    {
      OFFSET -2.1923 -43.463 -0.4931
      CHANNELS 3 Zrotation Xrotation Yrotation
      JOINT rFoot
      {
        OFFSET -0.7333 -45.8593 -2.6451
        CHANNELS 3 Zrotation Xrotation Yrotation
        End Site
        {
          OFFSET -2.6618 -4.2699 12.3931
        }
      }
    }
  }
}
MOTION
Frames:	4
Frame Time:	0.0333333
0 91.7903 2.51682 0 0 -0 0 0 -0 0 0 -0 0 0 -0 0 0 -0 0 0 -0 0 0 -0 1.66051 0.0835086 5.75766 -0.0175111 0.895433 15.7816 7.95139e-016 -1.98785e-016 -0 5.46658e-016 -3.97569e-016 -0 5.96354e-016 0 -0 3.97569e-016 1.98785e-016 9.54166e-015 1.49089e-016 -3.97569e-016 -0 6.4605e-016 0 3.18055e-015 5.96354e-016 0 3.18055e-015 8.94531e-016 -1.98785e-016 6.36111e-015 6.4605e-016 0 3.18055e-015 5.96354e-016 0 3.18055e-015 8.94531e-016 -1.98785e-016 6.36111e-015 1.49089e-016 -3.97569e-016 -0 6.4605e-016 0 3.18055e-015 5.96354e-016 0 3.18055e-015 8.94531e-016 -1.98785e-016 6.36111e-015 6.4605e-016 0 3.18055e-015 5.96354e-016 0 3.18055e-015 8.94531e-016 -1.98785e-016 6.36111e-015 0 0 -0 -1.4496 0.0636048 -5.0245 -1.74811 1.20616 -16.8394 -1.19271e-015 1.98785e-016 -3.18055e-015 -3.97569e-016 1.98785e-016 -3.18055e-015 -2.98177e-016 1.98785e-016 -3.18055e-015 -2.98177e-016 3.97569e-016 -0 4.96962e-016 0 -6.36111e-015 -9.93923e-017 3.97569e-016 -0 -8.94531e-016 5.96354e-016 -0 -3.97569e-016 3.97569e-016 -0 -9.93923e-017 3.97569e-016 -0 -8.94531e-016 5.96354e-016 -0 -3.97569e-016 3.97569e-016 -0 4.96962e-016 0 -6.36111e-015 -9.93923e-017 3.97569e-016 -0 -8.94531e-016 5.96354e-016 -0 -3.97569e-016 3.97569e-016 -0 -9.93923e-017 3.97569e-016 -0 -8.94531e-016 5.96354e-016 -0 -3.97569e-016 3.97569e-016 -0 -4.66111 -0.998717 0.12318 0.00986924 1.54847 0.176523 4.65186 -0.572283 -0.254274 4.66111 -0.998765 -0.123176 -0.00986867 1.54869 -0.176537 -4.65186 -0.572453 0.25427 
-14.4167 3.58032 -13.2259 -120.005 -89.9993 -0.00448476 5.34037 -1.40375 3.35137 10.7575 -2.48714 6.82129 10.7575 -2.48711 6.82132 -10.7797 15.9176 -16.9157 23.6189 -6.97483 34.3673 -21.517 -1.82761 28.4555 -170.452 -28.4562 -113.824 -14.6607 55.6836 -73.5265 -11.4809 9.58654 -8.03765 -3.75667e-006 4.24727e-007 3.00213e-006 -2.0907e-006 -1.66597e-006 1.57171e-006 -2.0907e-006 -1.66597e-006 1.57171e-006 0 1.09332e-015 -0 -3.75667e-006 4.24727e-007 3.00213e-006 -2.0907e-006 -1.66597e-006 1.57171e-006 -2.0907e-006 -1.66597e-006 1.57171e-006 -3.75667e-006 4.24727e-007 3.00213e-006 -2.0907e-006 -1.66597e-006 1.57171e-006 -2.0907e-006 -1.66597e-006 1.57171e-006 0 1.09332e-015 -0 -3.75667e-006 4.24727e-007 3.00213e-006 -2.0907e-006 -1.66597e-006 1.57171e-006 -2.0907e-006 -1.66597e-006 1.57171e-006 -3.75667e-006 4.24727e-007 3.00213e-006 -2.0907e-006 -1.66597e-006 1.57171e-006 -2.0907e-006 -1.66597e-006 1.57171e-006 -3.50277 1.39935 30.3988 -6.73936 3.80046 21.6047 41.0491 -28.4512 93.3304 6.49223 2.60876 0.0254053 -1.40084e-006 -3.07353e-007 -2.12801e-006 -3.18055e-015 3.18055e-015 -0 1.78715e-006 9.35223e-007 1.70436e-006 9.54166e-015 -6.36111e-015 3.18055e-015 -1.40084e-006 -3.07353e-007 -2.12801e-006 -1.27222e-014 3.18055e-015 -0 1.78715e-006 9.35223e-007 1.70436e-006 -1.40084e-006 -3.07353e-007 -2.12801e-006 -1.27222e-014 3.18055e-015 -0 1.78715e-006 9.35223e-007 1.70436e-006 9.54166e-015 -6.36111e-015 3.18055e-015 -1.40084e-006 -3.07353e-007 -2.12801e-006 -1.27222e-014 3.18055e-015 -0 1.78715e-006 9.35223e-007 1.70436e-006 -1.40084e-006 -3.07353e-007 -2.12801e-006 -1.27222e-014 3.18055e-015 -0 1.78715e-006 9.35223e-007 1.70436e-006 -7.11396 -20.841 -2.64879 -5.69081 14.4379 7.58705 87.0956 24.6154 -99.4965 -60.953 -14.8302 -75.8697 112.831 52.784 -75.662 57.0815 71.4418 -61.683 
-14.4167 3.58032 -13.2259 -120.005 -89.9993 -0.00448476 5.34038 -1.40374 3.35137 10.7575 -2.48714 6.82129 10.7575 -2.48711 6.82132 -10.5189 15.9266 -16.9727 23.6189 -6.97484 34.3672 -21.517 -1.82761 28.4555 -170.452 -28.4562 -113.824 -14.6607 55.6836 -73.5265 -11.4809 9.58655 -8.03766 -2.0907e-006 -1.66597e-006 1.57171e-006 -3.75667e-006 4.24726e-007 3.00213e-006 -2.0907e-006 -1.66597e-006 1.57171e-006 -3.18055e-015 -2.18663e-015 7.95139e-016 -2.0907e-006 -1.66597e-006 1.57171e-006 -3.75667e-006 4.24726e-007 3.00213e-006 -2.0907e-006 -1.66597e-006 1.57171e-006 -2.0907e-006 -1.66597e-006 1.57171e-006 -3.75667e-006 4.24726e-007 3.00213e-006 -2.0907e-006 -1.66597e-006 1.57171e-006 -3.18055e-015 -2.18663e-015 7.95139e-016 -2.0907e-006 -1.66597e-006 1.57171e-006 -3.75667e-006 4.24726e-007 3.00213e-006 -2.0907e-006 -1.66597e-006 1.57171e-006 -2.0907e-006 -1.66597e-006 1.57171e-006 -3.75667e-006 4.24726e-007 3.00213e-006 -2.0907e-006 -1.66597e-006 1.57171e-006 -3.50277 1.39935 30.3988 -5.86108 4.43911 20.3358 40.8221 -27.5941 93.8968 5.43568 2.18451 0.0414141 3.53113e-031 6.36111e-015 -3.18055e-015 -3.79855e-007 -6.33734e-007 4.21411e-007 1.27222e-014 -1.27222e-014 -6.36111e-015 3.18055e-015 6.36111e-015 -3.18055e-015 6.36111e-015 0 9.54166e-015 -3.79855e-007 -6.33734e-007 4.21411e-007 9.54166e-015 0 -0 6.36111e-015 0 9.54166e-015 -3.79855e-007 -6.33734e-007 4.21411e-007 9.54166e-015 0 -0 3.18055e-015 6.36111e-015 -3.18055e-015 6.36111e-015 0 9.54166e-015 -3.79855e-007 -6.33734e-007 4.21411e-007 9.54166e-015 0 -0 6.36111e-015 0 9.54166e-015 -3.79855e-007 -6.33734e-007 4.21411e-007 9.54166e-015 0 -0 -7.11371 -20.8342 -2.64884 -5.6906 14.4247 7.58285 87.0993 24.6194 -99.5033 -60.9531 -14.8301 -75.8697 112.831 52.784 -75.6621 57.0815 71.4418 -61.683 
-14.4167 3.58032 -13.2259 -120.005 -89.9993 -0.00448476 5.34038 -1.40374 3.35137 10.7575 -2.48714 6.82129 10.7575 -2.48711 6.82132 -10.2579 15.9343 -17.0298 23.6189 -6.97484 34.3672 -21.517 -1.82761 28.4555 -170.452 -28.4562 -113.824 -14.6607 55.6836 -73.5265 -11.4809 9.58655 -8.03766 -2.0907e-006 -1.66597e-006 1.57171e-006 -3.75667e-006 4.24726e-007 3.00213e-006 -2.0907e-006 -1.66597e-006 1.57171e-006 -3.18055e-015 -2.18663e-015 7.95139e-016 -2.0907e-006 -1.66597e-006 1.57171e-006 -3.75667e-006 4.24726e-007 3.00213e-006 -2.0907e-006 -1.66597e-006 1.57171e-006 -2.0907e-006 -1.66597e-006 1.57171e-006 -3.75667e-006 4.24726e-007 3.00213e-006 -2.0907e-006 -1.66597e-006 1.57171e-006 -3.18055e-015 -2.18663e-015 7.95139e-016 -2.0907e-006 -1.66597e-006 1.57171e-006 -3.75667e-006 4.24726e-007 3.00213e-006 -2.0907e-006 -1.66597e-006 1.57171e-006 -2.0907e-006 -1.66597e-006 1.57171e-006 -3.75667e-006 4.24726e-007 3.00213e-006 -2.0907e-006 -1.66597e-006 1.57171e-006 -3.50277 1.39935 30.3988 -4.96048 5.06322 19.0454 40.5862 -26.7347 94.4655 4.37391 1.75777 0.049617 7.46543e-007 1.2792e-006 -8.3812e-007 3.18055e-015 -9.54166e-015 -0 7.46543e-007 1.2792e-006 -8.3812e-007 -3.53113e-031 -3.18055e-015 -6.36111e-015 7.46543e-007 1.2792e-006 -8.3812e-007 -0 -3.18055e-015 -0 7.46543e-007 1.2792e-006 -8.3812e-007 7.46543e-007 1.2792e-006 -8.3812e-007 -0 -3.18055e-015 -0 7.46543e-007 1.2792e-006 -8.3812e-007 -3.53113e-031 -3.18055e-015 -6.36111e-015 7.46543e-007 1.2792e-006 -8.3812e-007 -0 -3.18055e-015 -0 7.46543e-007 1.2792e-006 -8.3812e-007 7.46543e-007 1.2792e-006 -8.3812e-007 -0 -3.18055e-015 -0 7.46543e-007 1.2792e-006 -8.3812e-007 -7.11371 -20.8342 -2.64884 -5.6906 14.4247 7.58285 87.0993 24.6194 -99.5033 -60.9531 -14.8301 -75.8697 112.831 52.784 -75.6621 57.0815 71.4418 -61.683 
